<svg height="512pt" viewBox="0 0 512 512" width="512pt" xmlns="http://www.w3.org/2000/svg"><path d="m228.066406 88.011719c-8.675781 0-15.714844 7.03125-15.714844 15.71875 0 8.671875 7.039063 15.714843 15.714844 15.714843 8.6875 0 15.71875-7.042968 15.71875-15.714843 0-8.6875-7.03125-15.71875-15.71875-15.71875zm0 0"/><path d="m437.292969 182.773438h-92.410157v-114.816407c-.148437-37.5-30.699218-67.957031-68.230468-67.957031h-45.660156c-37.628907 0-68.242188 30.605469-68.242188 68.230469v70.714843c-12.871094 0-86.363281 0-94.855469 0-37.4375 0-67.894531 30.457032-67.894531 67.894532v46.351562c0 37.4375 30.457031 67.882813 67.894531 67.882813h94.855469v122.695312c0 37.625 30.605469 68.230469 68.230469 68.230469h45.671875c37.625 0 68.230468-30.605469 68.230468-68.230469v-70.722656h92.410157c37.4375 0 67.894531-30.449219 67.894531-67.886719v-54.492187c.003906-37.4375-30.457031-67.894531-67.894531-67.894531zm36.464843 122.386718c0 20.097656-16.355468 36.453125-36.464843 36.453125-3.660157 0-166.488281 0-172.011719 0-20.757812 0-20.792969 31.433594 0 31.433594h48.167969v70.722656c0 20.296875-16.515625 36.796875-36.796875 36.796875h-45.671875c-20.285157 0-36.796875-16.5-36.796875-36.796875 0-21.828125 0-149.441406 0-176.589843h134.980468c8.675782 0 15.71875-7.042969 15.71875-15.714844v-37.261719h92.410157c20.105469 0 36.460937 16.355469 36.460937 36.464844v54.492187zm-442.324218-51.96875v-46.351562c0-20.105469 16.355468-36.460938 36.460937-36.460938h175.886719c20.847656 0 20.726562-31.433594 0-31.433594h-49.601562v-70.714843c0-20.292969 16.515624-36.796875 36.808593-36.796875h45.664063c20.292968 0 36.796875 16.5 36.796875 36.796875v167.515625h-134.984375c-8.675782 0-15.714844 7.03125-15.714844 15.71875v38.179687h-94.855469c-20.105469 0-36.460937-16.355469-36.460937-36.453125zm0 0"/><path d="m281.921875 425.738281c8.683594 0 15.714844-7.042969 15.714844-15.714843 0-8.675782-7.03125-15.71875-15.714844-15.71875-8.675781 0-15.714844 7.042968-15.714844 15.71875 0 8.671874 7.039063 15.714843 15.714844 15.714843zm0 0"/></svg>